<?xml version="1.0" standalone="no"?>
<!DOCTYPE svg PUBLIC "-//W3C//DTD SVG 20010904//EN"
 "http://www.w3.org/TR/2001/REC-SVG-20010904/DTD/svg10.dtd">
<svg version="1.0" xmlns="http://www.w3.org/2000/svg"
 width="512.000000pt" height="487.000000pt" viewBox="0 0 512.000000 487.000000"
 preserveAspectRatio="xMidYMid meet">
<metadata>
Created by potrace 1.16, written by Peter Selinger 2001-2019
</metadata>
<g transform="translate(0.000000,487.000000) scale(0.100000,-0.100000)"
fill="#000000" stroke="none">
<path d="M3026 4632 c5 -5 56 -14 114 -21 175 -20 385 -79 560 -156 505 -223
901 -651 1089 -1175 101 -283 143 -618 110 -883 -10 -80 -8 -109 6 -96 2 3 10
71 16 151 33 432 -85 888 -325 1257 -325 500 -835 828 -1423 916 -115 17 -162
19 -147 7z"/>
<path d="M2490 4493 c-70 -6 -267 -41 -350 -64 -537 -143 -996 -507 -1268
-1004 -94 -172 -160 -357 -208 -580 -34 -160 -44 -471 -21 -645 88 -662 479
-1230 1067 -1548 540 -292 1230 -316 1792 -63 381 172 682 437 911 799 117
186 228 475 268 699 26 147 36 444 20 592 -31 288 -128 577 -274 821 -161 270
-415 527 -687 698 -77 49 -321 162 -420 195 -253 86 -555 122 -830 100z m420
-178 c114 -15 356 -73 411 -98 19 -9 61 -27 94 -40 128 -53 296 -155 440 -266
64 -49 249 -241 306 -317 378 -502 485 -1153 287 -1739 -159 -472 -504 -865
-952 -1086 -432 -214 -969 -248 -1426 -91 -433 149 -785 437 -1016 832 -497
848 -242 1956 573 2500 248 165 545 276 825 309 117 14 344 12 458 -4z"/>
<path d="M2485 4273 c-244 -22 -546 -125 -767 -261 -227 -139 -446 -356 -591
-585 -100 -156 -200 -402 -237 -582 -47 -226 -51 -511 -11 -728 49 -266 168
-535 339 -767 66 -88 251 -277 337 -342 678 -514 1595 -507 2256 20 453 360
714 934 685 1503 -26 507 -236 948 -611 1286 -336 304 -770 467 -1223 461 -76
-1 -155 -3 -177 -5z m100 -495 c-4 -11 -25 -60 -47 -107 -105 -224 -138 -306
-138 -336 0 -29 4 -34 28 -38 21 -3 19 -4 -11 -6 -51 -1 -100 46 -91 87 10 41
47 131 116 277 53 115 66 135 87 138 59 9 63 8 56 -15z m-710 -132 c-15 -23
-15 -23 27 -29 52 -7 98 -52 98 -96 0 -16 -15 -51 -34 -80 -25 -36 -29 -48
-16 -41 36 19 80 12 111 -19 40 -40 40 -97 -1 -168 -37 -65 -80 -96 -133 -97
-34 -1 -43 3 -56 26 -14 24 -14 28 3 47 27 29 56 27 56 -3 0 -56 31 -74 64
-37 38 42 32 140 -11 192 -22 26 -32 30 -63 27 l-36 -3 23 34 c27 39 30 89 8
131 -20 38 -54 58 -67 39 -5 -8 -7 -102 -6 -209 4 -243 -3 -270 -82 -350 -86
-89 -171 -104 -202 -35 -9 21 -8 28 7 45 10 11 26 20 36 20 21 0 41 -32 34
-53 -3 -7 1 -20 10 -27 14 -12 22 -11 52 5 63 35 68 54 69 295 0 194 2 220 21
268 24 60 17 65 -47 32 -22 -11 -40 -18 -40 -15 0 3 30 20 67 38 37 17 78 44
91 59 29 34 38 37 17 4z m755 -95 c23 -45 1 -119 -53 -178 -72 -78 -137 -100
-82 -28 39 52 65 128 58 168 -3 15 0 34 7 42 18 21 57 19 70 -4z m208 -38
c-44 -46 -68 -93 -68 -130 0 -41 13 -55 56 -63 35 -7 32 -8 -26 -9 -44 -1 -73
4 -87 14 -30 21 -37 65 -19 109 8 20 12 36 8 36 -10 0 29 26 83 54 26 14 57
26 69 26 18 0 16 -5 -16 -37z m-1186 -14 c-90 -87 -122 -213 -77 -304 36 -71
108 -86 139 -27 20 35 21 20 1 -18 -17 -33 -72 -70 -105 -70 -64 0 -113 65
-113 149 0 90 49 183 142 268 59 54 69 56 13 2z m614 -6 c-18 -56 -46 -180
-46 -200 0 -29 24 -40 48 -22 11 9 11 6 -3 -9 -28 -30 -77 -39 -98 -17 -22 21
-21 100 1 179 15 53 21 61 52 72 48 17 52 17 46 -3z m903 -13 c10 -5 4 -14
-23 -35 -20 -15 -33 -32 -29 -39 3 -6 3 -8 -2 -4 -4 4 -14 0 -22 -10 -8 -9
-11 -11 -8 -4 4 8 -19 -11 -50 -41 -56 -53 -58 -54 -96 -44 -21 5 -39 13 -39
18 0 5 -8 6 -17 3 -10 -3 2 7 27 22 25 15 76 56 114 91 62 57 72 63 100 57 17
-3 37 -10 45 -14z m320 -130 c9 0 -12 -14 -47 -31 -136 -66 -150 -176 -22
-181 42 -1 43 -2 8 -5 -54 -6 -117 14 -151 48 -24 24 -28 35 -23 60 7 37 45
88 67 88 8 1 19 5 25 10 12 12 62 20 98 15 16 -2 36 -4 45 -4z m435 -499 c26
-27 31 -39 31 -80 0 -57 -26 -93 -81 -111 -43 -14 -91 0 -125 36 -34 37 -34
112 1 149 33 36 57 46 104 41 27 -3 49 -14 70 -35z m-1334 -42 c86 3 167 -39
184 -95 5 -16 20 -24 60 -33 44 -10 62 -20 93 -56 90 -102 122 -167 109 -219
-6 -23 -9 -25 -26 -16 -15 8 -20 21 -20 49 0 29 -8 50 -32 80 -18 22 -41 52
-52 66 -21 31 -72 55 -115 55 -26 0 -33 6 -50 44 -28 64 -57 79 -160 83 -128
5 -149 5 -228 0 -40 -3 -75 -2 -78 3 -16 26 124 53 215 42 25 -3 70 -5 100 -3z
m-175 -159 l170 -88 0 -40 c0 -46 35 -92 69 -92 15 0 27 -13 40 -41 29 -63 87
-91 153 -73 21 6 21 7 -14 60 -19 29 -44 56 -54 59 -24 8 -24 20 1 45 27 27
44 25 58 -4 13 -29 81 -106 90 -104 9 3 82 -22 82 -27 0 -2 -5 -15 -11 -28
-10 -22 -5 -33 56 -111 38 -47 72 -86 77 -86 18 0 6 -29 -19 -48 -16 -11 -25
-23 -21 -27 3 -4 20 3 36 15 29 21 52 21 52 -1 0 -10 93 -122 143 -171 36 -36
34 -48 -8 -48 -22 0 -38 -6 -44 -17 -7 -12 -13 -14 -18 -8 -65 88 -127 165
-132 165 -4 0 -13 -28 -20 -62 -12 -60 -12 -62 11 -80 13 -9 28 -18 34 -18 6
0 21 -11 34 -25 l23 -25 -23 -25 c-31 -33 -57 -31 -100 6 -32 27 -36 28 -47
12 -7 -9 -13 -22 -13 -27 1 -6 32 -33 71 -61 39 -27 75 -55 80 -62 11 -12
-137 61 -160 80 -11 10 -13 9 -10 -2 3 -8 29 -27 59 -43 75 -40 82 -47 75 -77
-3 -14 -1 -41 4 -58 6 -21 6 -33 0 -33 -5 0 -45 25 -89 55 -44 30 -88 55 -97
55 -12 0 -4 -8 19 -23 34 -20 87 -77 73 -77 -8 0 -69 31 -75 39 -8 10 -50 32
-50 26 0 -3 9 -15 20 -27 14 -16 20 -36 20 -70 0 -59 -13 -67 -69 -40 -39 19
-42 19 -63 3 -57 -44 -134 -52 -218 -21 -30 11 -56 20 -57 20 -7 0 -51 -108
-58 -140 -8 -39 -41 -80 -64 -80 -14 0 -93 39 -386 190 -66 34 -182 94 -258
133 -163 83 -174 96 -138 161 14 22 38 59 56 81 73 93 130 197 448 818 45 86
84 157 87 157 3 -1 82 -41 175 -90z m1609 -311 c49 -23 58 -97 16 -139 -27
-27 -93 -27 -120 0 -74 74 7 183 104 139z m-540 -521 c90 0 94 -1 105 -24 12
-27 2 -58 -21 -66 -27 -9 -203 0 -202 11 1 6 2 29 3 52 0 25 5 38 12 34 5 -4
52 -7 103 -7z m146 -67 c0 -26 -45 -124 -64 -140 -19 -16 -94 -17 -109 -2 -8
8 -6 21 8 44 26 45 44 56 88 57 34 0 40 4 50 30 13 34 27 40 27 11z m-37 -199
c-1 -36 -17 -60 -48 -72 -24 -9 -45 5 -45 31 0 11 -5 19 -10 19 -6 0 -9 -15
-8 -32 3 -28 0 -33 -19 -32 l-22 0 20 -27 c11 -16 24 -31 29 -34 6 -4 10 -15
10 -26 0 -14 -9 -21 -29 -25 -17 -4 -38 -15 -47 -25 -24 -27 -32 -24 -51 16
-9 19 -20 35 -23 35 -3 0 -15 6 -25 14 -19 13 -18 16 24 56 34 33 48 40 67 36
22 -6 23 -4 14 19 -7 20 -5 27 10 38 11 8 17 16 14 20 -15 15 9 22 73 22 l68
0 -2 -33z m-563 -75 c19 -13 54 -29 77 -35 47 -14 66 -39 61 -80 -4 -37 -46
-41 -112 -11 -77 35 -86 45 -86 101 0 55 9 59 60 25z m589 0 c36 -44 15 -128
-38 -160 -38 -22 -58 -21 -71 4 -9 16 -8 25 6 40 17 18 16 20 -6 44 -27 29
-21 55 14 55 14 0 31 7 38 15 16 18 42 19 57 2z m-293 -95 c6 -4 21 -26 34
-49 l23 -42 -29 -25 c-40 -35 -114 -34 -114 1 0 8 -9 22 -20 31 -20 17 -20 17
5 46 l25 29 1 -34 1 -34 11 33 c16 43 40 60 63 44z m183 -75 c13 -14 19 -30
15 -40 -7 -19 -89 -61 -103 -53 -5 3 -14 -1 -21 -9 -16 -19 -49 -19 -74 0 -18
14 -18 15 8 26 14 7 26 17 26 22 0 5 6 4 14 -2 12 -10 15 -6 21 19 7 30 43 59
76 60 8 0 25 -11 38 -23z"/>
<path d="M2211 2613 c-18 -38 -68 -135 -111 -218 -43 -82 -102 -197 -131 -255
-68 -137 -146 -277 -177 -318 -33 -43 -40 -110 -16 -139 11 -12 87 -56 169
-99 83 -42 214 -110 293 -150 98 -51 153 -74 178 -74 62 0 64 3 130 155 19 45
99 208 153 310 167 319 211 412 207 430 -4 13 4 29 21 47 15 16 22 28 16 28
-21 0 -83 -80 -121 -157 -22 -43 -58 -114 -81 -158 -22 -44 -41 -85 -41 -92 0
-6 -4 -13 -9 -15 -14 -5 -231 -443 -231 -466 0 -6 -11 -19 -24 -28 -24 -15
-28 -14 -88 19 -35 20 -169 89 -298 155 -204 105 -235 124 -238 145 -2 17 14
53 46 104 49 77 105 184 305 573 54 107 103 199 107 203 4 5 65 -21 134 -57
70 -36 131 -66 136 -66 6 0 10 11 10 23 0 20 -20 34 -140 95 -76 40 -145 72
-153 72 -8 0 -28 -30 -46 -67z"/>
<path d="M2228 2425 c-29 -58 -63 -125 -75 -150 -26 -52 -21 -77 14 -73 21 3
37 25 99 143 83 158 89 185 45 185 -27 0 -33 -8 -83 -105z"/>
<path d="M2881 2086 c-12 -15 -36 -59 -199 -379 -106 -207 -104 -192 -25 -223
44 -17 75 -14 107 11 19 14 18 16 -22 64 -23 27 -42 54 -42 59 0 13 44 52 60
52 8 0 28 -14 46 -31 32 -31 32 -31 43 -10 10 17 7 23 -16 38 -73 45 -89 76
-55 106 23 21 46 21 75 3 48 -30 63 -29 81 8 9 19 16 46 16 60 0 14 13 41 30
59 52 59 35 133 -38 175 -47 26 -46 26 -61 8z"/>
<path d="M426 2393 c-13 -218 17 -467 84 -690 100 -333 283 -637 526 -873 129
-125 178 -166 302 -249 263 -178 599 -298 945 -336 38 -4 57 -3 57 4 0 6 -13
11 -30 11 -63 0 -248 33 -367 66 -352 96 -648 268 -903 524 -254 253 -432 558
-526 899 -55 200 -68 307 -69 549 0 116 -3 212 -6 212 -4 0 -10 -53 -13 -117z"/>
</g>
</svg>
