<?xml version="1.0" standalone="no"?>
<!DOCTYPE svg PUBLIC "-//W3C//DTD SVG 20010904//EN"
 "http://www.w3.org/TR/2001/REC-SVG-20010904/DTD/svg10.dtd">
<svg version="1.0" xmlns="http://www.w3.org/2000/svg"
 width="300.000000pt" height="300.000000pt" viewBox="0 0 300.000000 300.000000"
 preserveAspectRatio="xMidYMid meet">
<metadata>
Created by potrace 1.10, written by Peter Selinger 2001-2011
</metadata>
<g transform="translate(0.000000,300.000000) scale(0.100000,-0.100000)"
fill="#000000" stroke="none">
<path d="M1041 2659 c-33 -20 -34 -21 -29 -82 10 -117 76 -202 213 -272 81
-42 179 -122 190 -156 8 -25 50 -35 71 -18 33 27 -6 213 -69 332 -17 33 -57
83 -93 116 -99 93 -210 125 -283 80z m216 -61 c97 -63 156 -154 192 -296 24
-92 27 -152 9 -152 -7 1 -28 21 -45 45 -40 53 -75 80 -172 131 -135 70 -189
138 -199 246 -4 53 -3 59 19 68 47 20 129 2 196 -42z"/>
<path d="M1086 2601 c-23 -25 -15 -64 26 -125 34 -52 61 -73 151 -120 34 -18
72 -39 85 -47 17 -10 26 -11 40 -3 37 24 -8 126 -94 212 -87 87 -173 121 -208
83z m111 -37 c77 -38 141 -118 184 -230 l9 -25 -27 19 c-16 11 -56 34 -90 51
-77 38 -128 83 -154 132 -41 82 -15 100 78 53z"/>
<path d="M1834 2140 c-88 -18 -203 -100 -240 -173 -19 -37 -4 -67 34 -66 20 0
36 12 65 49 74 99 215 135 347 90 71 -24 101 -42 174 -108 54 -47 109 -79 170
-97 l39 -12 -49 -24 c-43 -21 -62 -24 -159 -23 -73 0 -130 6 -170 17 -79 23
-234 32 -309 18 -130 -24 -258 -108 -302 -197 -22 -45 -26 -64 -22 -112 2 -32
13 -77 25 -100 l20 -42 -296 0 c-308 0 -321 -2 -321 -42 0 -16 -5 -15 -46 7
-54 29 -143 34 -198 11 -82 -34 -146 -148 -130 -233 25 -141 139 -244 317
-289 l66 -16 20 -60 c56 -166 208 -300 422 -373 214 -73 442 -52 661 62 145
74 239 186 282 332 13 44 16 105 16 310 0 144 -4 263 -10 271 -8 13 -61 16
-347 20 l-338 5 -28 50 c-23 42 -27 59 -24 109 3 57 6 62 52 103 120 105 250
126 485 77 207 -43 352 -23 434 60 46 46 71 108 55 137 -8 15 -21 18 -68 18
-71 -1 -120 22 -211 99 -128 109 -271 150 -416 122z m278 -63 c40 -19 85 -46
100 -59 122 -107 164 -130 246 -129 40 0 42 -1 42 -30 0 -38 -69 -109 -125
-127 -22 -8 -83 -16 -135 -19 -78 -4 -116 0 -213 21 -155 34 -238 34 -340 -2
-121 -42 -203 -119 -214 -199 -7 -51 29 -145 68 -178 l31 -25 318 0 c183 0
321 -4 324 -9 4 -5 7 -121 9 -258 2 -237 1 -251 -21 -315 -61 -176 -182 -284
-397 -356 -195 -66 -409 -53 -602 35 -55 26 -174 106 -204 139 -40 44 -79 107
-79 126 0 10 -4 18 -9 18 -5 0 -15 22 -22 49 -6 26 -19 53 -29 58 -9 6 -52 20
-96 32 -128 36 -210 100 -253 197 -22 49 -28 119 -11 129 6 4 8 10 5 15 -9 15
23 67 57 94 67 50 146 53 231 11 l47 -24 17 27 c9 15 18 28 19 30 1 2 130 3
287 3 280 -1 286 0 301 21 13 19 13 25 -5 59 -24 48 -26 152 -3 198 22 44 127
126 188 147 87 29 175 40 265 32 47 -4 97 -12 112 -17 15 -5 70 -15 121 -22
82 -10 104 -10 170 5 78 17 126 50 115 79 -3 7 -27 22 -54 32 -52 20 -95 48
-188 125 -85 70 -148 93 -260 93 -124 0 -174 -25 -268 -133 -21 -23 -32 -29
-40 -21 -16 16 39 89 97 129 74 49 127 62 233 58 81 -3 100 -7 165 -39z"/>
<path d="M1045 1303 c-83 -3 -114 -8 -127 -20 -16 -14 -18 -37 -18 -222 0
-228 7 -270 59 -368 68 -127 181 -212 354 -269 97 -31 126 -36 217 -37 144 -2
224 16 359 80 88 42 125 66 163 106 52 56 111 147 121 187 3 14 8 36 12 50 3
14 6 119 5 234 0 267 5 256 -129 256 -136 0 -131 7 -131 -204 0 -144 -2 -167
-16 -173 -9 -3 -20 0 -24 7 -5 8 -9 85 -9 173 -1 88 -6 168 -12 178 -9 18 -26
19 -333 19 -178 0 -336 1 -352 3 -16 2 -78 2 -139 0z m807 -180 c-4 -178 1
-210 33 -225 19 -9 29 -7 50 6 l25 16 0 175 0 175 99 0 98 0 5 -193 c6 -222 0
-275 -41 -362 -55 -117 -152 -198 -308 -255 -207 -75 -398 -64 -598 34 -147
72 -226 157 -266 287 -16 52 -19 93 -19 275 l0 214 463 0 462 0 -3 -147z"/>
<path d="M1887 818 c-8 -13 -20 -44 -27 -71 -11 -42 -11 -49 5 -67 35 -38 64
-16 88 67 13 45 13 55 0 73 -19 26 -49 26 -66 -2z m43 -40 c0 -37 -20 -82 -35
-79 -11 2 -10 45 1 70 7 15 9 22 13 36 0 3 6 5 11 5 6 0 10 -15 10 -32z"/>
<path d="M633 1284 c-27 -6 -81 -58 -93 -89 -47 -123 62 -264 246 -320 38 -11
45 -11 62 6 19 17 20 29 16 160 -4 158 -7 168 -73 213 -41 29 -106 41 -158 30z
m122 -37 c11 -5 35 -23 53 -40 l32 -31 0 -144 0 -143 -22 6 c-143 40 -233 108
-257 197 -34 121 79 212 194 155z"/>
<path d="M1023 2106 c-82 -19 -142 -47 -217 -100 -94 -67 -124 -80 -190 -80
-48 -1 -61 -5 -73 -22 -12 -19 -11 -24 6 -45 16 -20 27 -24 78 -23 71 1 122
23 232 97 98 68 156 87 281 94 120 6 188 -16 252 -82 49 -51 83 -58 100 -20 9
21 7 29 -16 59 -34 46 -80 80 -142 107 -62 28 -219 35 -311 15z m279 -36 c92
-28 177 -99 158 -130 -7 -11 -19 -4 -55 29 -89 82 -205 107 -355 77 -90 -19
-153 -46 -214 -95 -86 -69 -224 -112 -261 -81 -24 20 -7 30 43 29 31 -1 63 6
92 19 51 25 113 61 120 71 7 10 64 49 73 50 4 0 23 8 43 16 20 8 46 15 58 16
11 0 30 4 41 9 39 17 190 11 257 -10z"/>
</g>
</svg>
