<svg height="512.00002pt" viewBox="0 0 512.00002 512.00002" width="512.00002pt" xmlns="http://www.w3.org/2000/svg"><path d="m357.925781 169.765625.59375.402344c2.9375 2.214843 6.496094 3.457031 10.175781 3.546875 1.8125.019531 3.605469-.386719 5.230469-1.1875 3.847657-2.1875 5.726563-6.703125 4.570313-10.972656-1.796875-8.558594-9.132813-14.828126-17.867188-15.269532h-11.957031l2.140625 12.125c.945312 4.507813 3.464844 8.535156 7.113281 11.355469zm0 0"/><path d="m395.722656 278.855469c1.757813-1.636719 2.625-4.011719 2.339844-6.398438-1.246094-7.078125-15.542969-17.671875-43.59375-24.914062-2.175781 4.957031-4.996094 9.605469-8.394531 13.824219-11.316407 13.773437-28.136719 21.84375-45.960938 22.0625-.710937 0-1.433593 0-2.148437 0-27.242188-.695313-52.609375-14.015626-68.652344-36.042969-23.773438 6.683593-33.726562 15.898437-32.667969 21.871093 2.394531 13.550782 44.542969 32.457032 107.8125 32.457032 49.519531 0 82.019531-11.886719 91.265625-22.859375zm0 0"/><path d="m90.433594 454.65625c1.265625-9.039062 8.984375-15.769531 18.109375-15.800781h26.515625l-54.28125-392.226563-80.777344 465.308594 82.542969.0625zm0 0"/><path d="m299.585938 265.144531c12.5-.105469 24.320312-5.722656 32.300781-15.351562 8.835937-11.535157 12.230469-26.335938 9.304687-40.566407l-8.390625-47.617187-2.742187-15.324219h-109.386719l10.972656 62.410156c6.710938 32.355469 34.902344 55.777344 67.941407 56.449219zm0 0"/><path d="m246.855469 0h-154.074219l70.875 512h91.566406l-7.222656-52.332031c-.730469-5.246094.847656-10.546875 4.324219-14.539063 3.476562-3.988281 8.511719-6.277344 13.804687-6.273437h138.34375c9.117188.042969 16.832032 6.761719 18.121094 15.792969l7.90625 57.351562h81.5l-70.839844-512zm40.441406 54.691406 8.226563-13.714844c2.644531-4.222656 8.1875-5.550781 12.460937-2.984374 4.273437 2.566406 5.703125 8.085937 3.210937 12.402343l-8.226562 13.714844c-.917969 1.527344.371094 4.214844 2.933594 6.117187 8.972656 5.945313 12.71875 17.253907 9.070312 27.382813l-2.597656 6.398437c-1.402344 3.449219-4.753906 5.699219-8.476562 5.699219-1.179688 0-2.351563-.230469-3.445313-.679687-4.660156-1.902344-6.90625-7.214844-5.019531-11.882813l2.605468-6.402343c.53125-1.316407-.355468-3.804688-3.0625-5.824219-10.070312-6.515625-13.417968-19.691407-7.679687-30.226563zm-36.574219 0 8.230469-13.714844c2.644531-4.222656 8.1875-5.550781 12.460937-2.984374 4.273438 2.566406 5.699219 8.085937 3.210938 12.402343l-8.230469 13.714844c-.914062 1.527344.375 4.214844 2.9375 6.117187 8.972657 5.945313 12.71875 17.253907 9.066407 27.382813l-2.59375 6.398437c-1.402344 3.449219-4.753907 5.699219-8.476563 5.699219-1.183594 0-2.355469-.230469-3.445313-.679687-4.660156-1.902344-6.90625-7.214844-5.019531-11.882813l2.605469-6.402343c.527344-1.316407-.359375-3.804688-3.0625-5.824219-10.070312-6.515625-13.417969-19.691407-7.683594-30.226563zm-36.570312 0 8.230468-13.714844c2.644532-4.222656 8.1875-5.550781 12.457032-2.984374 4.273437 2.566406 5.703125 8.085937 3.210937 12.402343l-8.226562 13.714844c-.914063 1.527344.375 4.214844 2.933593 6.117187 8.972657 5.945313 12.71875 17.253907 9.070313 27.382813l-2.597656 6.398437c-1.402344 3.449219-4.753907 5.699219-8.472657 5.699219-1.183593 0-2.355468-.230469-3.449218-.679687-4.660156-1.902344-6.902344-7.214844-5.019532-11.882813l2.605469-6.402343c.53125-1.316407-.355469-3.804688-3.0625-5.824219-10.066406-6.515625-13.414062-19.691407-7.679687-30.226563zm-35.519532 217.765625c-3.042968-17.253906 11.96875-32 41.144532-41.214843-2.828125-6.167969-4.875-12.664063-6.089844-19.339844l-11.28125-64c-.941406-4.960938.371094-10.082032 3.582031-13.976563 3.21875-3.792969 7.953125-5.960937 12.929688-5.925781h141.710937c17.632813.433594 32.578125 13.097656 35.898438 30.417969 2.546875 12.15625-3.25 24.53125-14.21875 30.355469-4.21875 2.136718-8.882813 3.242187-13.613282 3.226562-4.25-.054688-8.453124-.894531-12.398437-2.476562l2.917969 16.527343c1.394531 7.875 1.515625 15.917969.355468 23.828125 21.15625 5.484375 52.609376 17.308594 56.503907 39.378906 1.242187 7.714844-1.09375 15.574219-6.347657 21.355469-14.972656 17.847657-56.320312 29.386719-105.269531 29.386719-56.949219 0-120.375-16.667969-125.824219-47.542969zm202.671876 120.6875h-109.714844c-5.050782 0-9.144532-4.09375-9.144532-9.144531s4.09375-9.144531 9.144532-9.144531h109.714844c5.046874 0 9.140624 4.09375 9.140624 9.144531s-4.09375 9.144531-9.140624 9.144531zm48.410156-36.574219h-219.429688c-5.050781 0-9.140625-4.09375-9.140625-9.140624 0-5.050782 4.089844-9.144532 9.140625-9.144532h219.429688c5.050781 0 9.140625 4.09375 9.140625 9.144532 0 5.046874-4.089844 9.140624-9.140625 9.140624zm0 0"/></svg>