<?xml version="1.0" standalone="no"?>
<!DOCTYPE svg PUBLIC "-//W3C//DTD SVG 20010904//EN"
 "http://www.w3.org/TR/2001/REC-SVG-20010904/DTD/svg10.dtd">
<svg version="1.0" xmlns="http://www.w3.org/2000/svg"
 width="512.000000pt" height="512.000000pt" viewBox="0 0 512.000000 512.000000"
 preserveAspectRatio="xMidYMid meet">
<metadata>
Created by potrace 1.16, written by Peter Selinger 2001-2019
</metadata>
<g transform="translate(0.000000,512.000000) scale(0.100000,-0.100000)"
fill="#000000" stroke="none">
<path d="M2536 4978 c-8 -13 -138 -405 -290 -871 -151 -466 -283 -862 -293
-879 -10 -17 -34 -39 -53 -49 -33 -18 -76 -19 -952 -19 -504 0 -923 -3 -932
-6 -25 -9 -19 -40 12 -66 16 -12 348 -255 739 -538 734 -532 763 -555 763
-621 0 -15 -126 -415 -280 -889 -154 -474 -280 -875 -280 -891 0 -22 5 -29 19
-29 11 0 343 235 738 522 395 287 733 532 752 545 46 31 116 31 162 0 19 -13
357 -258 752 -545 395 -287 727 -522 738 -522 14 0 19 7 19 29 0 16 -126 416
-280 890 -154 475 -280 874 -280 889 0 37 30 82 81 124 24 19 350 257 724 528
374 271 690 502 703 513 26 24 29 52 6 61 -9 3 -428 6 -932 6 -876 0 -919 1
-952 19 -19 10 -43 32 -53 49 -10 17 -142 413 -293 879 -152 466 -282 858
-290 871 -8 12 -19 22 -24 22 -5 0 -16 -10 -24 -22z"/>
</g>
</svg>
