<svg id="Capa_1" enable-background="new 0 0 512 512" height="512" viewBox="0 0 512 512" width="512" xmlns="http://www.w3.org/2000/svg"><g><path d="m178.066 136c0 5.874-6.357 15.073-10.605 19.395-5.859 5.859-5.859 15.352 0 21.211s15.352 5.859 21.211 0c1.992-1.978 19.395-19.98 19.395-40.605s-17.402-38.628-19.351-40.562c-4.292-4.365-10.649-13.564-10.649-19.438s6.357-15.073 10.649-19.438c5.815-5.859 5.801-15.322-.044-21.167-5.859-5.859-15.352-5.859-21.211 0-1.992 1.978-19.395 19.98-19.395 40.605s17.402 38.628 19.351 40.562c4.292 4.364 10.649 13.563 10.649 19.437z"/><path d="m268.066 106c0 5.874-6.357 15.073-10.605 19.395-5.859 5.859-5.859 15.352 0 21.211s15.352 5.859 21.211 0c1.992-1.978 19.395-19.98 19.395-40.605s-17.402-38.628-19.351-40.562c-4.292-4.365-10.649-13.564-10.649-19.438s6.357-16.073 10.649-20.438c5.815-5.859 5.801-15.322-.044-21.167-5.859-5.859-15.352-5.859-21.211 0-1.992 1.978-19.395 20.98-19.395 41.605s17.402 38.628 19.351 40.562c4.292 4.364 10.649 13.563 10.649 19.437z"/><path d="m178.081 361h29.986v-29.824c-.571-3.882-6.855-13.301-15-22.969-8.203 9.741-14.517 19.219-15 23.057z"/><path d="m358.593 419.59c84.331-8.826 127.051-63.045 125.288-114.02-1.304-37.778-26.382-64.175-60.981-64.175-8.575 0-17.161 1.571-25.252 4.089.32-4.288.657-7.822 1.024-8.879 4.292-4.292 5.581-10.737 3.252-16.348-2.314-5.61-7.793-9.258-13.857-9.258h-180v68.914c11.526 12.177 30 34.305 30 51.086v45c0 8.291-6.709 15-15 15h-60c-8.291 0-15-6.709-15-15v-45c0-16.782 18.474-38.91 30-51.086v-68.913h-120c-6.064 0-12.041 3.018-14.37 8.613-2.314 5.61-1.538 11.411 2.754 15.703 2.065 4.16 2.9 21.519 3.574 35.464 3.28 68.233 10.092 211.22 173.07 211.22 69.921 0 110.986-27.186 135.498-62.41zm95.303-112.98c1.106 32.054-23.123 67.888-77.732 80.164 14.989-37.174 18.159-77.877 19.677-107.952 7.3-4.451 17.538-7.427 27.059-7.427 21.987.001 30.44 18.97 30.996 35.215z"/><path d="m43.066 512h360c8.291 0 15-6.709 15-15s-6.709-15-15-15h-360c-8.291 0-15 6.709-15 15s6.709 15 15 15z"/></g></svg>