<svg xmlns="http://www.w3.org/2000/svg" xmlns:xlink="http://www.w3.org/1999/xlink" width="800" zoomAndPan="magnify" viewBox="0 0 600 599.999999" height="800" preserveAspectRatio="xMidYMid meet" version="1.0"><defs><clipPath id="id1"><path d="M 223.617188 238.476562 L 376.226562 238.476562 L 376.226562 413.246094 L 223.617188 413.246094 Z M 223.617188 238.476562 " clip-rule="nonzero"/></clipPath><clipPath id="id2"><path d="M 223.617188 234.160156 L 376.226562 234.160156 L 376.226562 285.476562 L 223.617188 285.476562 Z M 223.617188 234.160156 " clip-rule="nonzero"/></clipPath><clipPath id="id3"><path d="M 276 173.246094 L 328 173.246094 L 328 249 L 276 249 Z M 276 173.246094 " clip-rule="nonzero"/></clipPath></defs><path fill="rgb(49.409485%, 85.099792%, 34.118652%)" d="M 300 135 C 208.871094 135 135 208.871094 135 300 C 135 391.128906 208.871094 465 300 465 C 391.128906 465 465 391.128906 465 300 C 465 208.871094 391.128906 135 300 135 " fill-opacity="1" fill-rule="nonzero"/><g clip-path="url(#id1)"><path fill="rgb(36.859131%, 32.159424%, 25.489807%)" d="M 376.226562 259.695312 L 376.226562 363.519531 C 376.226562 366.421875 375.480469 369.277344 374.058594 371.804688 L 356.699219 402.726562 C 356.699219 406.628906 331.277344 413.246094 299.921875 413.246094 C 268.5625 413.246094 243.140625 406.628906 243.140625 402.726562 L 225.78125 371.804688 C 224.363281 369.277344 223.617188 366.421875 223.617188 363.519531 L 223.617188 259.695312 C 223.617188 267.074219 231.652344 273.503906 246.859375 278.289062 C 261.066406 282.757812 279.910156 285.21875 299.921875 285.21875 C 319.929688 285.21875 338.773438 282.757812 352.980469 278.289062 C 368.1875 273.503906 376.226562 267.074219 376.226562 259.695312 Z M 299.921875 238.582031 C 280.34375 238.582031 261.96875 240.972656 248.179688 245.308594 C 235.554688 249.285156 228.015625 254.660156 228.015625 259.695312 C 228.015625 264.734375 235.554688 270.113281 248.179688 274.082031 C 261.96875 278.421875 280.34375 280.8125 299.921875 280.8125 C 319.496094 280.8125 337.871094 278.421875 351.660156 274.082031 C 364.285156 270.113281 371.824219 264.734375 371.824219 259.695312 C 371.824219 254.660156 364.285156 249.285156 351.660156 245.308594 C 337.871094 240.972656 319.496094 238.582031 299.921875 238.582031 " fill-opacity="1" fill-rule="nonzero"/></g><g clip-path="url(#id2)"><path fill="rgb(44.709778%, 39.219666%, 31.369019%)" d="M 299.921875 238.582031 C 280.34375 238.582031 261.96875 240.972656 248.179688 245.308594 C 235.554688 249.285156 228.015625 254.660156 228.015625 259.695312 C 228.015625 264.734375 235.554688 270.113281 248.179688 274.082031 C 261.96875 278.421875 280.34375 280.8125 299.921875 280.8125 C 319.496094 280.8125 337.871094 278.421875 351.660156 274.082031 C 364.285156 270.113281 371.824219 264.734375 371.824219 259.695312 C 371.824219 254.660156 364.285156 249.285156 351.660156 245.308594 C 337.871094 240.972656 319.496094 238.582031 299.921875 238.582031 Z M 299.921875 285.21875 C 279.910156 285.21875 261.066406 282.757812 246.859375 278.289062 C 231.652344 273.503906 223.617188 267.074219 223.617188 259.695312 C 223.617188 252.320312 231.652344 245.894531 246.859375 241.105469 C 261.066406 236.636719 279.910156 234.175781 299.921875 234.175781 C 319.929688 234.175781 338.773438 236.636719 352.980469 241.105469 C 368.1875 245.894531 376.226562 252.320312 376.226562 259.695312 C 376.226562 267.074219 368.1875 273.503906 352.980469 278.289062 C 338.773438 282.757812 319.929688 285.21875 299.921875 285.21875 " fill-opacity="1" fill-rule="nonzero"/></g><path fill="rgb(43.139648%, 67.449951%, 18.03894%)" d="M 351.660156 260 C 358.183594 262.050781 363.34375 264.480469 366.8125 267.039062 C 363.34375 269.605469 358.183594 272.03125 351.660156 274.082031 C 337.871094 278.421875 319.496094 280.8125 299.921875 280.8125 C 280.34375 280.8125 261.96875 278.421875 248.179688 274.082031 C 241.65625 272.03125 236.496094 269.605469 233.03125 267.039062 C 236.496094 264.480469 241.65625 262.050781 248.179688 260 C 261.96875 255.660156 280.34375 253.269531 299.921875 253.269531 C 319.496094 253.269531 337.871094 255.660156 351.660156 260 " fill-opacity="1" fill-rule="nonzero"/><path fill="rgb(72.938538%, 88.62915%, 39.99939%)" d="M 309.152344 254.640625 C 296.574219 254.339844 263.476562 255.277344 242.996094 271.820312 C 242.867188 271.917969 242.753906 272.019531 242.632812 272.117188 C 244.351562 272.804688 246.203125 273.460938 248.179688 274.082031 C 256.363281 276.660156 266.164062 278.546875 276.875 279.65625 C 282.496094 270.972656 292.34375 262.273438 309.421875 256.390625 C 310.371094 256.066406 310.152344 254.664062 309.152344 254.640625 Z M 334.902344 276.253906 C 334.902344 276.253906 335.691406 276.761719 336.734375 277.707031 C 326.675781 279.550781 315.320312 280.609375 303.433594 280.785156 C 302.929688 279.9375 302.488281 279.167969 302.121094 278.507812 C 301.296875 277.042969 301.695312 275.1875 303.046875 274.191406 C 308.808594 269.929688 324.183594 259.707031 334.902344 263.164062 C 348.328125 267.488281 334.902344 276.253906 334.902344 276.253906 " fill-opacity="1" fill-rule="nonzero"/><g clip-path="url(#id3)"><path fill="rgb(92.158508%, 91.369629%, 90.589905%)" d="M 279.582031 208.742188 C 276.144531 191.144531 286.0625 173.246094 286.0625 173.246094 C 268.84375 188.75 279.582031 208.742188 279.582031 208.742188 Z M 316.5625 179.824219 C 316.5625 179.824219 311.898438 192.21875 314.769531 201.199219 C 317.636719 210.179688 327.304688 222.03125 321.753906 230.648438 C 321.753906 230.648438 330.195312 217.359375 325.890625 208.742188 C 321.585938 200.121094 313.332031 185.746094 316.5625 179.824219 Z M 311.988281 224.074219 C 314.445312 241.285156 292.953125 248.660156 292.953125 248.660156 C 312.601562 233.296875 282.515625 213.628906 283.742188 198.261719 C 284.972656 182.898438 302.164062 179.824219 302.164062 179.824219 C 284.972656 197.035156 309.53125 206.867188 311.988281 224.074219 " fill-opacity="1" fill-rule="nonzero"/></g></svg>